<?xml version="1.0" standalone="no"?>
<!DOCTYPE svg PUBLIC "-//W3C//DTD SVG 20010904//EN"
 "http://www.w3.org/TR/2001/REC-SVG-20010904/DTD/svg10.dtd">
<svg version="1.0" xmlns="http://www.w3.org/2000/svg"
 width="111.000000pt" height="115.000000pt" viewBox="0 0 111.000000 115.000000"
 preserveAspectRatio="xMidYMid meet">
<metadata>
Created by potrace 1.13, written by Peter Selinger 2001-2015
</metadata>
<g transform="translate(0.000000,115.000000) scale(0.100000,-0.100000)"
fill="#000000" stroke="none">
<path d="M305 1119 c-33 -5 -81 -16 -107 -26 -38 -13 -52 -14 -73 -5 -80 36
-127 -20 -85 -101 12 -23 26 -44 30 -47 5 -3 2 -34 -6 -70 -8 -36 -18 -133
-21 -217 -7 -178 11 -298 59 -399 28 -59 29 -63 14 -92 -34 -67 -13 -97 61
-88 73 9 75 9 120 -8 31 -12 86 -16 230 -17 202 -1 275 5 310 27 30 19 50 18
80 -6 31 -24 66 -26 87 -4 19 18 20 46 5 89 -10 28 -8 42 19 111 41 106 57
240 49 431 -4 107 -11 165 -25 210 -19 61 -19 64 -1 99 19 39 17 88 -7 113
-11 12 -20 12 -59 1 -25 -7 -48 -17 -51 -21 -8 -14 -48 -10 -90 8 -32 13 -81
17 -259 19 -121 2 -247 -1 -280 -7z m503 -20 c26 -6 55 -15 64 -20 28 -14 58
-11 85 11 14 11 39 20 54 20 41 0 49 -40 20 -96 -21 -38 -21 -44 -8 -70 27
-53 37 -133 37 -287 0 -189 -19 -324 -55 -406 -26 -57 -27 -64 -15 -106 7 -24
10 -51 7 -60 -9 -21 -51 -19 -72 5 -21 23 -62 26 -90 6 -30 -20 -104 -26 -307
-26 -172 -1 -218 5 -273 31 -15 7 -29 6 -50 -5 -36 -19 -57 -20 -73 -4 -17 17
-15 44 4 73 15 24 15 28 -11 83 -47 97 -64 198 -65 373 0 148 13 263 31 283
12 13 11 46 -1 46 -15 0 -40 56 -40 90 0 38 19 47 69 30 30 -10 43 -10 61 0
48 26 168 38 373 39 115 1 229 -4 255 -10z"/>
<path d="M360 983 c-43 -22 -74 -81 -65 -121 3 -15 24 -46 45 -69 l40 -41 -25
-50 c-14 -27 -25 -56 -25 -63 0 -34 45 -81 142 -147 182 -123 236 -216 166
-282 -44 -41 -151 -12 -232 63 -33 31 -37 39 -26 52 21 25 -6 18 -37 -10 -16
-15 -21 -25 -13 -23 8 1 44 -19 80 -46 105 -77 159 -92 226 -60 41 20 91 75
100 110 10 38 -11 94 -52 143 l-37 42 22 43 c44 88 24 131 -98 215 -49 33 -93
61 -98 61 -14 1 -96 60 -111 81 -14 21 -10 63 10 86 15 19 86 16 138 -5 78
-30 112 -52 106 -68 -9 -23 18 -16 44 11 24 26 21 47 -4 26 -12 -10 -28 -5
-85 24 -87 45 -160 55 -211 28z m122 -289 c106 -60 162 -129 142 -175 -9 -19
-14 -17 -89 37 -116 82 -135 102 -135 141 0 18 4 33 9 33 5 0 38 -16 73 -36z"/>
<path d="M767 892 c-39 -43 -4 -162 46 -162 31 0 107 55 108 78 4 58 -10 76
-49 61 -20 -8 -28 -5 -48 16 -28 30 -36 31 -57 7z"/>
<path d="M294 552 c-6 -4 -14 -17 -18 -29 -5 -16 -16 -23 -44 -25 -32 -3 -37
-7 -40 -31 -3 -24 2 -30 50 -52 29 -14 61 -25 71 -25 35 0 51 106 21 148 -16
24 -23 26 -40 14z"/>
</g>
</svg>
